<?xml version="1.0" encoding="UTF-8"?>
<svg id="Layer_1" xmlns="http://www.w3.org/2000/svg" version="1.1" viewBox="0 0 512 394">
  <!-- Generator: Adobe Illustrator 29.8.1, SVG Export Plug-In . SVG Version: 2.1.1 Build 2)  -->
  <g id="diagrams">
    <path d="M249.91,332.36c63.09-3.1,115.11-4.14,145.09-34.1s34.82-64.48,35.42-105.77c.69-47.9,3.24-73.31-12.5-118.8-14.58-42.15-61.17-68.39-90.25-70.9-60.15-5.18-112.3-3.09-165.93,5.75-50.68,8.35-74.28,52.69-81.23,105.38-7.33,55.66,2.54,133.34,14.34,161.12,23.62,55.61,115.49,59.26,155.05,57.31h.01Z" fill="#eda9a9" isolation="isolate" opacity=".3"/>
    <path d="M478,194.57c-17-19.65-74-42.11-134-33.69-35.73,5.01-77.45,10.45-121.5,35.62-28,16-38.51,53.28-35.51,109.43s27.9,76.35,99.01,77.68c97.29,1.81,120.5.31,158.5-12.11,36.18-11.83,59.35-37.59,63.5-87.09,1.74-20.68-2.86-58.46-30-89.84Z" fill="#7ddd62" isolation="isolate" opacity=".3" stroke="#fff" stroke-miterlimit="10"/>
    <path d="M74.5,196.5c47.5-5.87,102.85-10.05,164-6,40.5,2.68,89.38,38.68,75,132-7.88,51.12-42,61-75,65-46.25,5.61-119,6-168-4C6.67,370.47-2.33,313.94,7.5,263.5c7-35.9,25.96-61.93,67-67Z" fill="#75b1f2" isolation="isolate" opacity=".3" stroke="#fff" stroke-miterlimit="10"/>
    <path d="M327.5,84.87c36,5.46,65.96,13.47,83.5,56.37,17.54,42.91,24,118.55-30,162.15-27.4,22.12-123.07,25.29-173,21.8-78-5.46-117.88-26.12-116-138.99,1-59.96,28-87.85,70.5-99.12,28.61-7.59,133.93-6.94,165-2.23h0Z" fill="#d36eb7" isolation="isolate" opacity=".3" stroke="#fff" stroke-miterlimit="10"/>
  </g>
  <g id="titles">
    <g isolation="isolate">
      <text transform="translate(182.08 31.18)" font-family="SourceSansPro-Bold, &apos;Source Sans Pro&apos;" font-size="17.08" font-weight="700" isolation="isolate"><tspan x="0" y="0">Personal Informatics</tspan></text>
    </g>
    <g isolation="isolate">
      <text transform="translate(150.98 50)" font-family="SourceSansPro-It, &apos;Source Sans Pro&apos;" font-size="11.65" font-style="italic" isolation="isolate"><tspan x="0" y="0">How can we support people&apos;s efforts to sustain </tspan></text>
      <text transform="translate(164.98 63.97)" font-family="SourceSansPro-It, &apos;Source Sans Pro&apos;" font-size="11.65" font-style="italic" isolation="isolate"><tspan x="0" y="0">health &amp; well-being through technology?</tspan></text>
    </g>
    <g isolation="isolate">
      <text transform="translate(16.44 285.97)" fill="#2d60ba" font-family="SourceSansPro-Bold, &apos;Source Sans Pro&apos;" font-size="13.97" font-weight="700" isolation="isolate"><tspan x="0" y="0">Marginalized Populations</tspan></text>
    </g>
    <g isolation="isolate">
      <text transform="translate(22.85 304.79)" fill="#2d60ba" font-family="SourceSansPro-It, &apos;Source Sans Pro&apos;" font-size="11.65" font-style="italic" isolation="isolate"><tspan x="0" y="0">How should we design systems </tspan></text>
      <text transform="translate(25.36 318.76)" fill="#2d60ba" font-family="SourceSansPro-It, &apos;Source Sans Pro&apos;" font-size="11.65" font-style="italic" isolation="isolate"><tspan x="0" y="0">for marginalized populations&apos; </tspan></text>
      <text transform="translate(47.42 332.74)" fill="#2d60ba" font-family="SourceSansPro-It, &apos;Source Sans Pro&apos;" font-size="11.65" font-style="italic" isolation="isolate"><tspan x="0" y="0">health &amp; well-being?</tspan></text>
    </g>
    <g isolation="isolate">
      <text transform="translate(354.22 315.7)" fill="#008e8e" font-family="SourceSansPro-Bold, &apos;Source Sans Pro&apos;" font-size="13.97" font-weight="700" isolation="isolate"><tspan x="0" y="0">Generative AIs</tspan></text>
    </g>
    <g isolation="isolate">
      <text transform="translate(325.28 334.52)" fill="#008e8e" font-family="SourceSansPro-It, &apos;Source Sans Pro&apos;" font-size="11.65" font-style="italic" isolation="isolate"><tspan x="0" y="0">How can we leverage GenAIs to </tspan></text>
      <text transform="translate(326.69 348.49)" fill="#008e8e" font-family="SourceSansPro-It, &apos;Source Sans Pro&apos;" font-size="11.65" font-style="italic" isolation="isolate"><tspan x="0" y="0">augment human intervention?</tspan></text>
    </g>
    <g isolation="isolate">
      <text transform="translate(146.18 107.87)" fill="#dd3e7f" font-family="SourceSansPro-Bold, &apos;Source Sans Pro&apos;" font-size="13.97" font-weight="700" isolation="isolate"><tspan x="0" y="0">Self-knowledge-driven Interaction</tspan></text>
    </g>
    <g isolation="isolate">
      <text transform="translate(142.13 124.69)" fill="#dd3e7f" font-family="SourceSansPro-It, &apos;Source Sans Pro&apos;" font-size="11.65" font-style="italic" isolation="isolate"><tspan x="0" y="0">How can we help people exchange knowledge and </tspan></text>
      <text transform="translate(168.06 138.66)" fill="#dd3e7f" font-family="SourceSansPro-It, &apos;Source Sans Pro&apos;" font-size="11.65" font-style="italic" isolation="isolate"><tspan x="0" y="0">information about self with the system?</tspan></text>
    </g>
  </g>
  <g id="previous-research">
    <path d="M411,135.03c-17.54-38.46-47.5-45.65-83.5-50.53-31.07-4.22-136.39-4.8-165,2-42.5,10.1-69.5,35.1-70.5,88.84-6.35,106.41,34.78,140.94,98.7,148.29-7.95-77,5.13-111.89,31.8-127.13,44.05-25.17,85.77-30.61,121.5-35.62,27.37-3.84,54.11-1.26,76.72,4.56-2.26-11.21-5.7-21.57-9.72-30.4h0Z" fill="none" stroke="#7066cc" stroke-linejoin="round" stroke-width="4"/>
    <polygon points="97 144 5 144 5 111 114 111 103 127.5 97 144" fill="#7066cc"/>
    <g>
      <path d="M10.54,116.67h2.22c1.48,0,2.47.55,2.47,1.92,0,1.93-1.44,2.78-3.44,2.78h-1.26l-.62,3.17h-.94s1.57-7.87,1.57-7.87ZM11.82,120.62c1.62,0,2.48-.65,2.48-1.91,0-.91-.62-1.3-1.77-1.3h-1.21l-.64,3.2h1.14Z" fill="#fff"/>
      <path d="M16.67,118.71h.76l-.13,1.12h.05c.47-.71,1.09-1.26,1.81-1.26.22,0,.38.04.55.11l-.32.82c-.12-.06-.29-.1-.5-.1-.58,0-1.22.52-1.72,1.46l-.73,3.68h-.91l1.15-5.83h-.01Z" fill="#fff"/>
      <path d="M22.69,118.57c1.31,0,1.8.91,1.8,2.11,0,.47-.13.92-.2,1.14h-3.79c-.22,1.5.56,2.13,1.58,2.13.46,0,.94-.23,1.31-.5l.36.61c-.47.34-1.13.62-1.88.62-1.38,0-2.29-.88-2.29-2.43,0-2.19,1.6-3.68,3.12-3.68h-.01ZM23.65,121.2c.04-.19.06-.37.06-.6,0-.66-.29-1.3-1.13-1.3s-1.69.74-1.99,1.9h3.06Z" fill="#fff"/>
      <path d="M25.44,118.71h.91l.43,3.37c.06.56.11,1.18.17,1.74h.05c.28-.58.56-1.16.86-1.74l1.71-3.37h.92l-3.11,5.83h-1.1l-.85-5.83h.01Z" fill="#fff"/>
      <path d="M31.64,118.71h.92l-1.18,5.83h-.91l1.16-5.83h.01ZM31.84,116.96c0-.4.32-.7.7-.7.31,0,.59.2.59.55,0,.4-.32.68-.7.68-.31,0-.59-.19-.59-.54h0Z" fill="#fff"/>
      <path d="M33.42,122.35c0-2.21,1.55-3.78,3.14-3.78,1.26,0,2.09.89,2.09,2.34,0,2.21-1.56,3.78-3.15,3.78-1.26,0-2.07-.89-2.07-2.34h0ZM37.71,120.97c0-1.06-.44-1.64-1.25-1.64-1.07,0-2.12,1.33-2.12,2.96,0,1.06.44,1.63,1.25,1.63,1.08,0,2.12-1.32,2.12-2.95Z" fill="#fff"/>
      <path d="M43.91,124.54h-.76l.1-.89h-.05c-.64.56-1.31,1.03-2.02,1.03-.98,0-1.38-.56-1.38-1.45,0-.28.02-.49.1-.8l.74-3.72h.92l-.73,3.6c-.06.31-.1.48-.1.68,0,.59.26.9.86.9.46,0,1.02-.32,1.73-1.06l.83-4.13h.91l-1.16,5.83h0Z" fill="#fff"/>
      <path d="M45.42,123.58l.58-.46c.36.5.89.85,1.5.85.67,0,1.24-.44,1.24-.97,0-.42-.25-.66-1.07-1.1-.9-.49-1.33-.94-1.33-1.6,0-1.03.91-1.74,2-1.74.71,0,1.28.32,1.72.78l-.53.52c-.31-.32-.68-.58-1.21-.58-.62,0-1.1.42-1.1.91s.5.74,1.03,1.03c1.04.58,1.37,1.02,1.37,1.65,0,1.09-.92,1.8-2.18,1.8-.78,0-1.61-.49-2-1.1h-.02Z" fill="#fff"/>
      <path d="M54.12,118.71h.76l-.13,1.12h.05c.47-.71,1.09-1.26,1.81-1.26.22,0,.38.04.55.11l-.32.82c-.12-.06-.29-.1-.5-.1-.58,0-1.22.52-1.72,1.46l-.73,3.68h-.91l1.15-5.83h0Z" fill="#fff"/>
      <path d="M60.14,118.57c1.31,0,1.8.91,1.8,2.11,0,.47-.13.92-.2,1.14h-3.79c-.22,1.5.56,2.13,1.58,2.13.46,0,.94-.23,1.31-.5l.36.61c-.47.34-1.13.62-1.88.62-1.38,0-2.29-.88-2.29-2.43,0-2.19,1.6-3.68,3.12-3.68h0ZM61.1,121.2c.04-.19.06-.37.06-.6,0-.66-.29-1.3-1.13-1.3s-1.69.74-1.99,1.9h3.06Z" fill="#fff"/>
      <path d="M62.3,123.58l.58-.46c.36.5.89.85,1.5.85.67,0,1.24-.44,1.24-.97,0-.42-.25-.66-1.07-1.1-.9-.49-1.33-.94-1.33-1.6,0-1.03.91-1.74,2-1.74.71,0,1.28.32,1.72.78l-.53.52c-.31-.32-.68-.58-1.21-.58-.62,0-1.1.42-1.1.91s.5.74,1.03,1.03c1.04.58,1.37,1.02,1.37,1.65,0,1.09-.92,1.8-2.18,1.8-.78,0-1.61-.49-2-1.1h-.02Z" fill="#fff"/>
      <path d="M70.74,118.57c1.31,0,1.8.91,1.8,2.11,0,.47-.13.92-.2,1.14h-3.79c-.22,1.5.56,2.13,1.58,2.13.46,0,.94-.23,1.31-.5l.36.61c-.47.34-1.13.62-1.88.62-1.38,0-2.29-.88-2.29-2.43,0-2.19,1.6-3.68,3.12-3.68h-.01ZM71.7,121.2c.04-.19.06-.37.06-.6,0-.66-.29-1.3-1.13-1.3s-1.69.74-1.99,1.9h3.06Z" fill="#fff"/>
      <path d="M73.42,122.58c0-2.24,1.54-4.01,3.15-4.01.62,0,1.13.35,1.4.88h.05l.23-.73h.74l-1.16,5.83h-.76l.1-.86h-.05c-.56.6-1.3,1.01-2.03,1.01-1.02,0-1.68-.74-1.68-2.11h.01ZM77.27,122.8l.53-2.6c-.34-.61-.74-.86-1.19-.86-1.16,0-2.24,1.49-2.24,3.09,0,1.01.42,1.49,1.07,1.49.61,0,1.26-.36,1.84-1.12h0Z" fill="#fff"/>
      <path d="M80.92,118.71h.76l-.13,1.12h.05c.47-.71,1.09-1.26,1.81-1.26.22,0,.38.04.55.11l-.32.82c-.12-.06-.29-.1-.5-.1-.58,0-1.22.52-1.72,1.46l-.73,3.68h-.91l1.15-5.83h-.01Z" fill="#fff"/>
      <path d="M83.82,122.35c0-2.17,1.56-3.78,3.25-3.78.7,0,1.16.31,1.51.71l-.54.58c-.3-.36-.58-.53-1.03-.53-1.16,0-2.25,1.37-2.25,2.96,0,1.06.46,1.63,1.38,1.63.52,0,.94-.24,1.3-.52l.41.6c-.42.32-1.02.68-1.87.68-1.27,0-2.15-.85-2.15-2.34h-.01Z" fill="#fff"/>
      <path d="M90.67,116h.92l-.58,2.82-.19.73h.05c.66-.56,1.3-.98,2-.98.98,0,1.38.55,1.38,1.45,0,.28-.02.48-.1.8l-.74,3.72h-.91l.72-3.6c.06-.31.1-.48.1-.68,0-.59-.26-.9-.86-.9-.46,0-1.02.32-1.75,1.06l-.83,4.13h-.91l1.7-8.54h0Z" fill="#fff"/>
      <path d="M9.01,136.98c0-2.24,1.54-4.01,3.15-4.01.62,0,1.13.35,1.4.88h.05l.23-.73h.74l-1.16,5.83h-.76l.1-.86h-.05c-.56.6-1.3,1.01-2.03,1.01-1.02,0-1.68-.74-1.68-2.11h.01ZM12.86,137.2l.53-2.6c-.34-.61-.74-.86-1.19-.86-1.16,0-2.24,1.49-2.24,3.09,0,1.01.42,1.49,1.07,1.49.61,0,1.26-.36,1.84-1.12h0Z" fill="#fff"/>
      <path d="M15.82,137.79c0-.24.04-.43.06-.65l.68-3.29h-.85l.13-.68.91-.06.43-1.61h.78l-.32,1.61h1.48l-.14.74h-1.5l-.68,3.33c-.02.14-.04.28-.04.43,0,.48.19.72.74.72.23,0,.43-.1.61-.18l.2.66c-.26.12-.65.26-1.1.26-1.02,0-1.39-.58-1.39-1.3v.02Z" fill="#fff"/>
      <path d="M21.34,137.7l.68-.52c.47.7,1.15,1.12,2.03,1.12.96,0,1.69-.59,1.69-1.49,0-.58-.4-.94-.98-1.3l-.91-.55c-.67-.41-1.21-.96-1.21-1.85,0-1.19,1.03-2.18,2.45-2.18.94,0,1.74.47,2.23,1.1l-.61.55c-.41-.48-.96-.85-1.69-.85-.89,0-1.43.64-1.43,1.27s.44.94,1.02,1.28l.91.54c.76.44,1.19.97,1.19,1.85,0,1.4-1.14,2.41-2.73,2.41-1.08,0-1.99-.46-2.63-1.39h-.01Z" fill="#fff"/>
      <path d="M29.26,131.07h.94l1.8,5.04.5,1.64h.05c.1-.78.19-1.69.36-2.51l.83-4.17h.9l-1.57,7.87h-.92l-1.77-5.03-.52-1.69h-.05c-.1.82-.22,1.69-.37,2.48l-.84,4.23h-.9l1.57-7.87h-.01Z" fill="#fff"/>
      <path d="M36.65,131.07h.94l-.9,4.5c-.07.36-.11.66-.11.95,0,1.13.49,1.76,1.6,1.76.9,0,1.67-.67,2-2.39l.97-4.82h.91l-.98,4.86c-.44,2.27-1.55,3.15-2.95,3.15-1.6,0-2.48-.85-2.48-2.48,0-.34.05-.72.12-1.12l.89-4.41h0Z" fill="#fff"/>
      <path d="M44.86,136.98c0-2.24,1.54-4.01,3.15-4.01.62,0,1.13.35,1.4.88h.05l.23-.73h.74l-1.16,5.83h-.76l.1-.86h-.05c-.56.6-1.3,1.01-2.03,1.01-1.02,0-1.68-.74-1.68-2.11h0ZM48.71,137.2l.53-2.6c-.34-.61-.74-.86-1.19-.86-1.16,0-2.24,1.49-2.24,3.09,0,1.01.42,1.49,1.07,1.49.61,0,1.26-.36,1.83-1.12Z" fill="#fff"/>
      <path d="M52.36,133.11h.76l-.08.88h.05c.66-.58,1.31-1.02,2.04-1.02.98,0,1.38.55,1.38,1.45,0,.28-.02.48-.1.8l-.74,3.72h-.91l.72-3.6c.06-.31.1-.48.1-.68,0-.59-.26-.9-.86-.9-.46,0-1.02.32-1.75,1.06l-.83,4.13h-.91l1.15-5.83h-.02Z" fill="#fff"/>
      <path d="M62.36,132.68l.46-2.28h.92l-1.73,8.54h-.76l.1-.86h-.05c-.56.6-1.3,1.01-2.03,1.01-1.02,0-1.68-.74-1.68-2.11,0-2.24,1.54-4.01,3.15-4.01.62,0,1.09.34,1.38.85h.04l.19-1.14h0ZM61.45,137.2l.53-2.6c-.34-.61-.74-.86-1.19-.86-1.16,0-2.24,1.49-2.24,3.09,0,1.01.42,1.49,1.07,1.49.61,0,1.25-.36,1.84-1.12h0Z" fill="#fff"/>
      <path d="M67.81,131.07h.94l-.9,4.5c-.07.36-.11.66-.11.95,0,1.13.49,1.76,1.6,1.76.9,0,1.67-.67,2-2.39l.97-4.82h.91l-.98,4.86c-.44,2.27-1.55,3.15-2.95,3.15-1.6,0-2.48-.85-2.48-2.48,0-.34.05-.72.12-1.12l.89-4.41h-.01Z" fill="#fff"/>
      <path d="M75.24,131.07h1.12l.68,4.25.26,1.63h.05l.84-1.63,2.34-4.25h1.12l-1.57,7.87h-.9l.91-4.44c.14-.71.37-1.63.56-2.31h-.05l-.95,1.75-2.31,4.17h-.53l-.73-4.17-.26-1.75h-.05c-.1.71-.2,1.61-.34,2.31l-.89,4.44h-.88l1.57-7.87h0Z" fill="#fff"/>
      <path d="M83.7,131.07h1.46c2.18,0,3.33,1.14,3.33,3.07,0,2.85-1.59,4.8-4.26,4.8h-2.11l1.57-7.87h.01ZM84.24,138.17c2.04,0,3.31-1.63,3.31-3.97,0-1.49-.84-2.38-2.42-2.38h-.65l-1.27,6.34h1.03Z" fill="#fff"/>
    </g>
  </g>
  <g id="recent-research">
    <path d="M420.72,165.43c-22.61-5.81-49.35-8.4-76.72-4.56-35.73,5.01-77.45,10.45-121.5,35.62-26.67,15.24-42.11,56.45-31.8,127.14-59.21-6.81-99.09-36.36-98.51-129.19-6.01.65-11.91,1.34-17.68,2.05-41.04,5.07-60,31.1-67,67-9.83,50.44-.83,106.97,63,120,49,10,121.75,9.61,168,4,33-4,67.12-13.88,75-65,33.44-3.21,57.05-12.67,68.96-21.29,41.61-30.12,45.86-98.12,38.26-135.78h-.01Z" fill="none" stroke="#d36eb7" stroke-linejoin="round" stroke-width="4"/>
    <polygon points="420.72 237.42 509.37 237.42 509.37 268.46 408.6 268.46 414.82 255.47 420.72 237.42" fill="#d36eb7"/>
    <g>
      <path d="M423.54,241.67h2.16c1.46,0,2.46.52,2.46,1.83,0,1.45-.98,2.35-2.32,2.61l1.38,3.42h-1l-1.29-3.33h-1.37l-.66,3.33h-.94l1.57-7.87h.01ZM424.9,245.45c1.5,0,2.33-.71,2.33-1.82,0-.86-.61-1.21-1.76-1.21h-1.15l-.6,3.03h1.19,0Z" fill="#fff"/>
      <path d="M431.65,243.57c1.31,0,1.8.91,1.8,2.11,0,.47-.13.92-.2,1.14h-3.79c-.22,1.5.56,2.13,1.58,2.13.46,0,.94-.23,1.31-.5l.36.61c-.47.34-1.13.62-1.88.62-1.38,0-2.29-.88-2.29-2.43,0-2.19,1.6-3.68,3.12-3.68h0ZM432.61,246.2c.04-.19.06-.37.06-.6,0-.66-.29-1.3-1.13-1.3s-1.69.74-1.99,1.9h3.06Z" fill="#fff"/>
      <path d="M434.3,247.35c0-2.17,1.56-3.78,3.25-3.78.7,0,1.16.31,1.51.71l-.54.58c-.3-.36-.58-.53-1.03-.53-1.16,0-2.25,1.37-2.25,2.96,0,1.06.46,1.63,1.38,1.63.52,0,.94-.24,1.3-.52l.41.6c-.42.32-1.02.68-1.87.68-1.27,0-2.15-.85-2.15-2.34h-.01Z" fill="#fff"/>
      <path d="M442.46,243.57c1.31,0,1.8.91,1.8,2.11,0,.47-.13.92-.2,1.14h-3.79c-.22,1.5.56,2.13,1.58,2.13.46,0,.94-.23,1.31-.5l.36.61c-.47.34-1.13.62-1.88.62-1.38,0-2.29-.88-2.29-2.43,0-2.19,1.59-3.68,3.12-3.68h0ZM443.42,246.2c.04-.19.06-.37.06-.6,0-.66-.29-1.3-1.13-1.3s-1.69.74-1.99,1.9h3.06Z" fill="#fff"/>
      <path d="M446.19,243.71h.76l-.08.88h.05c.66-.58,1.31-1.02,2.04-1.02.98,0,1.38.55,1.38,1.45,0,.28-.02.48-.1.8l-.74,3.72h-.91l.72-3.6c.06-.31.1-.48.1-.68,0-.59-.26-.9-.86-.9-.46,0-1.02.32-1.75,1.06l-.83,4.13h-.91l1.15-5.83h-.02Z" fill="#fff"/>
      <path d="M451.8,248.39c0-.24.04-.43.06-.65l.68-3.29h-.85l.13-.68.91-.06.43-1.61h.78l-.32,1.61h1.48l-.14.74h-1.5l-.68,3.33c-.02.14-.04.28-.04.43,0,.48.19.72.74.72.23,0,.43-.1.61-.18l.2.66c-.26.12-.65.26-1.1.26-1.02,0-1.39-.58-1.39-1.3v.02Z" fill="#fff"/>
      <path d="M458.7,243.71h.76l-.13,1.12h.05c.47-.71,1.09-1.26,1.81-1.26.22,0,.38.04.55.11l-.32.82c-.12-.06-.29-.1-.5-.1-.58,0-1.22.52-1.71,1.46l-.73,3.68h-.91l1.15-5.83h-.02Z" fill="#fff"/>
      <path d="M464.72,243.57c1.31,0,1.8.91,1.8,2.11,0,.47-.13.92-.2,1.14h-3.79c-.21,1.5.56,2.13,1.58,2.13.46,0,.94-.23,1.31-.5l.36.61c-.47.34-1.13.62-1.88.62-1.38,0-2.29-.88-2.29-2.43,0-2.19,1.59-3.68,3.12-3.68h0ZM465.68,246.2c.04-.19.06-.37.06-.6,0-.66-.29-1.3-1.13-1.3s-1.69.74-1.99,1.9h3.06Z" fill="#fff"/>
      <path d="M466.88,248.58l.58-.46c.36.5.89.85,1.5.85.67,0,1.24-.44,1.24-.97,0-.42-.25-.66-1.07-1.1-.9-.49-1.33-.94-1.33-1.6,0-1.03.91-1.74,2-1.74.71,0,1.28.32,1.71.78l-.53.52c-.31-.32-.68-.58-1.21-.58-.62,0-1.1.42-1.1.91s.5.74,1.03,1.03c1.04.58,1.37,1.02,1.37,1.65,0,1.09-.92,1.8-2.18,1.8-.78,0-1.61-.49-2-1.1h0Z" fill="#fff"/>
      <path d="M475.31,243.57c1.31,0,1.8.91,1.8,2.11,0,.47-.13.92-.2,1.14h-3.79c-.21,1.5.56,2.13,1.58,2.13.46,0,.94-.23,1.31-.5l.36.61c-.47.34-1.13.62-1.88.62-1.38,0-2.29-.88-2.29-2.43,0-2.19,1.59-3.68,3.12-3.68h0ZM476.27,246.2c.04-.19.06-.37.06-.6,0-.66-.29-1.3-1.13-1.3s-1.69.74-1.99,1.9h3.06Z" fill="#fff"/>
      <path d="M477.99,247.58c0-2.24,1.54-4.01,3.15-4.01.62,0,1.13.35,1.4.88h.05l.23-.73h.74l-1.16,5.83h-.76l.1-.86h-.05c-.56.6-1.3,1.01-2.03,1.01-1.02,0-1.68-.74-1.68-2.11h.01ZM481.84,247.8l.53-2.6c-.33-.61-.74-.86-1.19-.86-1.16,0-2.24,1.49-2.24,3.09,0,1.01.42,1.49,1.07,1.49.61,0,1.26-.36,1.83-1.12Z" fill="#fff"/>
      <path d="M485.49,243.71h.76l-.13,1.12h.05c.47-.71,1.09-1.26,1.81-1.26.21,0,.38.04.55.11l-.32.82c-.12-.06-.29-.1-.5-.1-.58,0-1.22.52-1.71,1.46l-.73,3.68h-.91l1.15-5.83h-.02Z" fill="#fff"/>
      <path d="M488.4,247.35c0-2.17,1.56-3.78,3.25-3.78.7,0,1.16.31,1.51.71l-.54.58c-.3-.36-.58-.53-1.03-.53-1.16,0-2.25,1.37-2.25,2.96,0,1.06.46,1.63,1.38,1.63.52,0,.94-.24,1.29-.52l.41.6c-.42.32-1.02.68-1.87.68-1.27,0-2.15-.85-2.15-2.34h0Z" fill="#fff"/>
      <path d="M495.25,241h.92l-.58,2.82-.19.73h.05c.66-.56,1.29-.98,2-.98.98,0,1.38.55,1.38,1.45,0,.28-.02.48-.1.8l-.74,3.72h-.91l.72-3.6c.06-.31.1-.48.1-.68,0-.59-.26-.9-.86-.9-.46,0-1.02.32-1.75,1.06l-.83,4.13h-.91l1.7-8.54h0Z" fill="#fff"/>
      <path d="M422.01,261.98c0-2.24,1.54-4.01,3.15-4.01.62,0,1.13.35,1.4.88h.05l.23-.73h.74l-1.16,5.83h-.76l.1-.86h-.05c-.56.6-1.29,1.01-2.03,1.01-1.02,0-1.68-.74-1.68-2.11h.01ZM425.86,262.2l.53-2.6c-.34-.61-.74-.86-1.19-.86-1.16,0-2.24,1.49-2.24,3.09,0,1.01.42,1.49,1.07,1.49.61,0,1.26-.36,1.84-1.12h-.01Z" fill="#fff"/>
      <path d="M428.82,262.79c0-.24.04-.43.06-.65l.68-3.29h-.85l.13-.68.91-.06.43-1.61h.78l-.32,1.61h1.48l-.14.74h-1.5l-.68,3.33c-.02.14-.04.28-.04.43,0,.48.19.72.74.72.23,0,.43-.1.61-.18l.2.66c-.26.12-.65.26-1.1.26-1.02,0-1.39-.58-1.39-1.3v.02Z" fill="#fff"/>
      <path d="M436.18,256.07h.94l1.8,5.04.5,1.64h.05c.1-.78.19-1.69.36-2.51l.83-4.17h.9l-1.57,7.87h-.92l-1.78-5.03-.52-1.69h-.05c-.1.82-.22,1.69-.37,2.48l-.84,4.23h-.9l1.57-7.87h0Z" fill="#fff"/>
      <path d="M445.25,256.07h1.08l.91,7.87h-.97l-.22-2.46h-2.78l-1.26,2.46h-1.03l4.27-7.87h0ZM443.65,260.76h2.34l-.12-1.34c-.07-.83-.16-1.67-.22-2.57h-.05c-.42.91-.82,1.7-1.26,2.57l-.7,1.34h.01Z" fill="#fff"/>
      <path d="M448.14,256.07h.95l.32,4.37c.07.85.14,1.73.19,2.59h.05c.4-.84.83-1.75,1.25-2.59l2.17-4.37h1.01l-4.11,7.87h-1.12l-.71-7.87h0Z" fill="#fff"/>
      <path d="M455.1,256.07h4.34l-.16.78h-3.42l-.5,2.55h2.89l-.17.79h-2.87l-.61,2.95h3.53l-.17.79h-4.44l1.57-7.87h.01Z" fill="#fff"/>
      <path d="M461.13,256.07h2.16c1.46,0,2.46.52,2.46,1.83,0,1.45-.98,2.35-2.32,2.61l1.38,3.42h-1l-1.29-3.33h-1.37l-.66,3.33h-.94l1.57-7.87h.01ZM462.5,259.85c1.5,0,2.33-.71,2.33-1.82,0-.86-.61-1.21-1.76-1.21h-1.15l-.6,3.03h1.19,0Z" fill="#fff"/>
      <path d="M471.74,256.07h1.08l.91,7.87h-.97l-.22-2.46h-2.78l-1.26,2.46h-1.03l4.27-7.87h0ZM470.13,260.76h2.34l-.12-1.34c-.07-.83-.16-1.67-.21-2.57h-.05c-.42.91-.82,1.7-1.26,2.57l-.7,1.34Z" fill="#fff"/>
      <path d="M476.21,256.07h.94l-1.57,7.87h-.94l1.57-7.87Z" fill="#fff"/>
      <path d="M481.54,256.07h.94l-1.42,7.08h3.31l-.16.79h-4.25l1.57-7.87h.01Z" fill="#fff"/>
      <path d="M485.4,261.98c0-2.24,1.54-4.01,3.15-4.01.62,0,1.13.35,1.4.88h.05l.23-.73h.74l-1.16,5.83h-.76l.1-.86h-.05c-.56.6-1.29,1.01-2.03,1.01-1.02,0-1.68-.74-1.68-2.11h.01ZM489.25,262.2l.53-2.6c-.34-.61-.74-.86-1.19-.86-1.16,0-2.24,1.49-2.24,3.09,0,1.01.42,1.49,1.07,1.49.61,0,1.26-.36,1.84-1.12h-.01Z" fill="#fff"/>
      <path d="M491.74,263.94l1.7-8.54h.92l-.47,2.28-.26,1.15h.02c.58-.47,1.26-.86,1.98-.86,1.02,0,1.68.74,1.68,2.11,0,2.24-1.54,4.01-3.14,4.01-.62,0-1.13-.35-1.4-.88h-.04l-.24.73h-.76.01ZM493.51,259.68l-.55,2.77c.32.61.73.86,1.19.86,1.16,0,2.23-1.49,2.23-3.11,0-.98-.41-1.48-1.07-1.48-.54,0-1.25.36-1.8.95h0Z" fill="#fff"/>
    </g>
  </g>
  <g id="publication">
    <text transform="translate(207.27 291.12)" font-family="SourceSansPro-Semibold, &apos;Source Sans Pro&apos;" font-size="10.09" font-weight="600"><tspan x="0" y="0">[AACessTalk-CHI25]</tspan></text>
    <text transform="translate(304.03 197.12)" font-family="SourceSansPro-Semibold, &apos;Source Sans Pro&apos;" font-size="10.09" font-weight="600"><tspan x="0" y="0">[PlanFitting-CUI25]</tspan></text>
    <text transform="translate(323.43 182.12)" font-family="SourceSansPro-Semibold, &apos;Source Sans Pro&apos;" font-size="10.09" font-weight="600"><tspan x="0" y="0">[NAACL22-Ws]</tspan></text>
    <text transform="translate(309.24 229.12)" font-family="SourceSansPro-Semibold, &apos;Source Sans Pro&apos;" font-size="10.09" font-weight="600"><tspan x="0" y="0">[ExploreSelf-CHI25]</tspan></text>
    <text transform="translate(314.67 243.57)" font-family="SourceSansPro-Semibold, &apos;Source Sans Pro&apos;" font-size="10.09" font-weight="600"><tspan x="0" y="0">[LingoQ-CHI26]</tspan></text>
    <text transform="translate(300.39 213.12)" font-family="SourceSansPro-Semibold, &apos;Source Sans Pro&apos;" font-size="10.09" font-weight="600"><tspan x="0" y="0">[LLM-Chatbot-CSCW24]</tspan></text>
    <text transform="translate(199.13 174.12)" font-family="SourceSansPro-Semibold, &apos;Source Sans Pro&apos;" font-size="10.09" font-weight="600"><tspan x="0" y="0">[DataAtHand-CHI21]</tspan></text>
    <text transform="translate(101.82 160.12)" font-family="SourceSansPro-Semibold, &apos;Source Sans Pro&apos;" font-size="10.09" font-weight="600"><tspan x="0" y="0">[TimeAware-CHI16]</tspan></text>
    <text transform="translate(195.77 160.12)" font-family="SourceSansPro-Semibold, &apos;Source Sans Pro&apos;" font-size="10.09" font-weight="600"><tspan x="0" y="0">[OmniTrack-UbiComp17]</tspan></text>
    <text transform="translate(102.49 174.12)" font-family="SourceSansPro-Semibold, &apos;Source Sans Pro&apos;" font-size="10.09" font-weight="600"><tspan x="0" y="0">[Productivity-CHI19]</tspan></text>
    <text transform="translate(110.5 231.12)" font-family="SourceSansPro-Semibold, &apos;Source Sans Pro&apos;" font-size="10.09" font-weight="600"><tspan x="0" y="0">[MyMove-CHI22]</tspan></text>
    <text transform="translate(200.32 234.12)" font-family="SourceSansPro-Semibold, &apos;Source Sans Pro&apos;" font-size="10.09" font-weight="600"><tspan x="0" y="0">[MindfulDiary-CHI24]</tspan></text>
    <text transform="translate(207.1 276.87)" font-family="SourceSansPro-Semibold, &apos;Source Sans Pro&apos;" font-size="10.09" font-weight="600"><tspan x="0" y="0">[CareCallLTM-CHI24]</tspan></text>
    <text transform="translate(214.15 262.62)" font-family="SourceSansPro-Semibold, &apos;Source Sans Pro&apos;" font-size="10.09" font-weight="600"><tspan x="0" y="0">[CareCall-CHI23]</tspan></text>
    <text transform="translate(211.7 248.37)" font-family="SourceSansPro-Semibold, &apos;Source Sans Pro&apos;" font-size="10.09" font-weight="600"><tspan x="0" y="0">[ChaCha-CHI24]</tspan></text>
    <text transform="translate(225.75 354.54)" font-family="SourceSansPro-Semibold, &apos;Source Sans Pro&apos;" font-size="10.09" font-weight="600"><tspan x="0" y="0">[ELMI-CHI25]</tspan></text>
    <text transform="translate(97.45 366.12)" font-family="SourceSansPro-Semibold, &apos;Source Sans Pro&apos;" font-size="10.09" font-weight="600"><tspan x="0" y="0">[AVscript-CHI23]</tspan></text>
    <text transform="translate(208.68 304.79)" font-family="SourceSansPro-Semibold, &apos;Source Sans Pro&apos;" font-size="10.09" font-weight="600"><tspan x="0" y="0">[Autiverse-CHI26]</tspan></text>
    <text transform="translate(211.29 318.76)" font-family="SourceSansPro-Semibold, &apos;Source Sans Pro&apos;" font-size="10.09" font-weight="600"><tspan x="0" y="0">[AutiHero-arXiv25]</tspan></text>
  </g>
</svg>